<svg viewBox="0 0 70 70" fill="none" xmlns="http://www.w3.org/2000/svg"><path d="M69.634 48.339 49.84 29.734l2.197-10.097c.566.207 1.17.315 1.778.319h.015c2.795.03 5.087-2.059 5.12-4.667.034-2.608-2.206-4.747-5-4.778-2.796-.03-5.088 2.059-5.122 4.667a4.437 4.437 0 0 0 .293 1.638l-11.628 1.325L18.525.35a1.295 1.295 0 0 0-1.758-.01l-3.546 3.29a1.112 1.112 0 0 0 0 1.65l1.908 1.805c-7.392 12.683-4.99 28.39 5.907 38.638.1.09.216.161.342.213-.079.395-.12.796-.122 1.197v13.534H6.252C2.8 60.67.004 63.28 0 66.5v2.333C0 69.478.56 70 1.25 70h57.516c.69 0 1.25-.522 1.25-1.167V66.5c-.004-3.22-2.8-5.83-6.251-5.833H38.76v-5.998c2.351.46 4.746.694 7.148.7 5.762-.006 11.433-1.346 16.504-3.901l1.918 1.8a1.296 1.296 0 0 0 1.758.01l3.546-3.29a1.112 1.112 0 0 0 0-1.65ZM52.067 13.635c.979-.909 2.562-.905 3.536.009.974.913.97 2.39-.01 3.3a2.595 2.595 0 0 1-1.764.678h-.007c-1.381-.006-2.495-1.056-2.488-2.345a2.258 2.258 0 0 1 .737-1.642h-.004ZM49.123 21.3l-1.402 6.444-2.756-2.587 4.158-3.857Zm-1.42-1.973-4.501 4.176-3.483-3.267 7.984-.909ZM53.765 63c2.071 0 3.75 1.567 3.75 3.5v1.167H2.502V66.5c0-1.933 1.679-3.5 3.75-3.5h47.514ZM36.26 58.333v2.334H23.757v-2.334H36.26ZM23.757 56v-8.867c0-2.83 2.804-5.133 6.251-5.133 3.447 0 6.252 2.303 6.252 5.133V56H23.757Zm15.003-3.71v-5.157c0-4.117-3.925-7.466-8.752-7.466-3.12-.045-6.038 1.437-7.692 3.907-9.513-9.35-11.655-23.286-5.342-34.753l43.61 40.925C53.85 52.941 46.13 53.841 38.76 52.29Zm26.467-1.496-1.762-1.653L17.63 6.116 15.86 4.46l1.77-1.645 18.602 17.456c.01 0 .014.015.023.021L67 49.149l-1.775 1.645Z" fill="#212121"/><path d="M30.02 44.333h-.012c-2.072-.003-3.753 1.562-3.756 3.495-.004 1.933 1.673 3.502 3.745 3.505h.011c2.072.003 3.754-1.561 3.757-3.494.003-1.933-1.674-3.503-3.746-3.506Zm.875 4.328c-.236.218-.555.34-.887.339-.69-.003-1.247-.528-1.244-1.173a1.13 1.13 0 0 1 .369-.82c.233-.217.547-.339.875-.34.69.003 1.248.528 1.244 1.172a1.13 1.13 0 0 1-.369.822h.012Z" fill="#2196F3"/></svg>